<?xml version="1.0" encoding="utf-8"?>
<!-- Generator: Adobe Illustrator 23.0.1, SVG Export Plug-In . SVG Version: 6.00 Build 0)  -->
<svg version="1.0" id="Layer_1" xmlns="http://www.w3.org/2000/svg" xmlns:xlink="http://www.w3.org/1999/xlink" x="0px" y="0px"
	 viewBox="0 0 135.9 155" enable-background="new 0 0 135.9 155" xml:space="preserve">
<g>
	<g>
		<g>
			<path d="M90.3,131.1v7.2h-0.9v-7.2H90.3z"/>
			<path d="M97.8,138.1c-0.6,0.2-1.2,0.3-1.9,0.3c-2.6,0-3.9-1.3-3.9-3.8c0-2.4,1.3-3.6,3.8-3.6c0.7,0,1.4,0.1,2,0.3v0.8
				c-0.6-0.2-1.3-0.4-1.9-0.4c-2,0-3,0.9-3,2.8c0,2,1,3,2.9,3c0.3,0,0.7,0,1-0.1v-2.5h0.9V138.1z"/>
			<path d="M99.7,138.4v-7.2h0.9l4.4,5.8v-5.8h0.9v7.2H105l-4.4-5.9v5.9H99.7z"/>
			<path d="M109.2,131.1v7.2h-0.9v-7.2H109.2z"/>
			<path d="M116.5,131.1v0.8h-2.3v6.5h-0.9v-6.5H111v-0.8H116.5z"/>
			<path d="M119.3,131.1v7.2h-0.9v-7.2H119.3z"/>
			<path d="M121.7,138.4v-7.2h0.9l4.4,5.8v-5.8h0.9v7.2H127l-4.4-5.9v5.9H121.7z"/>
			<path d="M135.2,138.1c-0.6,0.2-1.2,0.3-1.9,0.3c-2.6,0-3.9-1.3-3.9-3.8c0-2.4,1.3-3.6,3.8-3.6c0.7,0,1.4,0.1,2,0.3v0.8
				c-0.6-0.2-1.3-0.4-1.9-0.4c-2,0-3,0.9-3,2.8c0,2,1,3,2.9,3c0.3,0,0.7,0,1-0.1v-2.5h0.9V138.1z"/>
			<path d="M89.8,140.6v5.2h-0.7v-5.2H89.8z"/>
			<path d="M91.2,145.8v-5.2h0.7l3.2,4.2v-4.2h0.6v5.2H95l-3.2-4.2v4.2H91.2z"/>
			<path d="M97,145.8v-5.2h0.7l3.2,4.2v-4.2h0.6v5.2h-0.7l-3.2-4.2v4.2H97z"/>
			<path d="M102.6,143.2c0-1.8,0.9-2.6,2.6-2.6c1.7,0,2.6,0.9,2.6,2.6c0,1.7-0.9,2.6-2.6,2.6C103.4,145.8,102.6,144.9,102.6,143.2z
				 M105.2,145.3c1.2,0,1.8-0.7,1.8-2.1c0-1.4-0.6-2.1-1.8-2.1c-1.3,0-1.9,0.7-1.9,2.1C103.3,144.6,103.9,145.3,105.2,145.3z"/>
			<path d="M113.3,140.6l-2.2,5.2h-0.7l-2.2-5.2h0.7l1.9,4.5l1.8-4.5H113.3z"/>
			<path d="M113.6,145.8h-0.7l2.2-5.2h0.7l2.2,5.2h-0.7l-0.7-1.6h-1.7l0.2-0.5h1.3l-1-2.3L113.6,145.8z"/>
			<path d="M121.8,140.6v0.5h-1.6v4.6h-0.7v-4.6h-1.6v-0.5H121.8z"/>
			<path d="M123.4,140.6v5.2h-0.7v-5.2H123.4z"/>
			<path d="M124.7,143.2c0-1.8,0.9-2.6,2.6-2.6c1.7,0,2.6,0.9,2.6,2.6c0,1.7-0.9,2.6-2.6,2.6C125.5,145.8,124.7,144.9,124.7,143.2z
				 M127.3,145.3c1.2,0,1.8-0.7,1.8-2.1c0-1.4-0.6-2.1-1.8-2.1c-1.3,0-1.9,0.7-1.9,2.1C125.4,144.6,126,145.3,127.3,145.3z"/>
			<path d="M130.8,145.8v-5.2h0.7l3.2,4.2v-4.2h0.6v5.2h-0.7l-3.2-4.2v4.2H130.8z"/>
			<path d="M89.2,154.6v-6.4h2.7c1.2,0,1.8,0.5,1.8,1.5c0,0.7-0.4,1.2-1.2,1.6c0.8,0.2,1.3,0.6,1.3,1.5c0,1.3-0.7,1.9-2,1.9H89.2z
				 M91.7,154c0.8,0,1.1-0.4,1.1-1.2c0-0.8-0.5-1.1-1.5-1.1H91v-0.5c1.2-0.2,1.8-0.6,1.8-1.3c0-0.6-0.3-0.9-1-0.9H90v5.1H91.7z"/>
			<path d="M94.5,148.2h0.9l1.8,3.3l1.9-3.3h1l-2.4,4.2v2.2h-0.8v-2.2L94.5,148.2z"/>
			<path d="M102.8,154.6v-6.4h2.3c2.1,0,3.2,1,3.2,3c0,2.3-1.1,3.4-3.2,3.4H102.8z M105.1,154c1.6,0,2.4-0.9,2.4-2.7
				c0-1.6-0.8-2.4-2.4-2.4h-1.5v5.1H105.1z"/>
			<path d="M113.7,148.2v0.7h-3.4v2.1h3.2v0.7h-3.2v2.2h3.4v0.7h-4.3v-6.4H113.7z"/>
			<path d="M114.9,154.4v-0.8c0.7,0.2,1.4,0.4,2.2,0.4c1.1,0,1.7-0.4,1.7-1.2c0-0.7-0.4-1-1.2-1h-0.8c-1.3,0-2-0.6-2-1.7
				c0-1.2,0.9-1.8,2.6-1.8c0.7,0,1.4,0.1,2.1,0.3v0.8c-0.6-0.2-1.3-0.4-2.1-0.4c-1.2,0-1.7,0.4-1.7,1.2c0,0.7,0.4,1,1.2,1h0.8
				c1.4,0,2,0.6,2,1.7c0,1.3-0.8,1.9-2.5,1.9C116.3,154.7,115.6,154.6,114.9,154.4z"/>
			<path d="M121.7,148.2v6.4h-0.8v-6.4H121.7z"/>
			<path d="M128.2,154.4c-0.5,0.2-1.1,0.3-1.7,0.3c-2.3,0-3.5-1.1-3.5-3.3c0-2.1,1.1-3.2,3.4-3.2c0.6,0,1.2,0.1,1.8,0.3v0.7
				c-0.6-0.2-1.1-0.3-1.7-0.3c-1.7,0-2.6,0.8-2.6,2.5c0,1.8,0.9,2.7,2.6,2.7c0.3,0,0.6,0,0.9-0.1v-2.2h0.8V154.4z"/>
			<path d="M129.6,154.6v-6.4h0.8l3.9,5.2v-5.2h0.8v6.4h-0.8l-3.9-5.2v5.2H129.6z"/>
		</g>
		<g>
			<linearGradient id="SVGID_1_" gradientUnits="userSpaceOnUse" x1="12.0244" y1="155.1041" x2="12.0244" y2="72.8688">
				<stop  offset="0" style="stop-color:#00A5D1"/>
				<stop  offset="1" style="stop-color:#00A5D1"/>
			</linearGradient>
			<path fill="url(#SVGID_1_)" d="M13.3,87.3L2.3,90.3L0,81.5l16.5-5.3H24l0,61.9H13.3L13.3,87.3z"/>
			<linearGradient id="SVGID_2_" gradientUnits="userSpaceOnUse" x1="56.1387" y1="155.1041" x2="56.1387" y2="72.8688">
				<stop  offset="0" style="stop-color:#00A5D1"/>
				<stop  offset="1" style="stop-color:#00A5D1"/>
			</linearGradient>
			<path fill="url(#SVGID_2_)" d="M56.1,139.2c-4,0-7.7-0.8-11-2.5c-3.3-1.6-6.1-3.9-8.4-6.8c-2.3-2.9-4.1-6.2-5.4-10
				c-1.3-3.8-1.9-7.9-1.9-12.3v-0.2c0-4.4,0.6-8.5,1.9-12.4c1.3-3.9,3.1-7.2,5.4-10.1c2.3-2.9,5.2-5.1,8.5-6.8c3.3-1.7,7-2.5,11-2.5
				s7.7,0.8,11,2.5c3.3,1.6,6.1,3.9,8.4,6.8c2.3,2.9,4.1,6.2,5.4,10c1.3,3.8,1.9,7.9,1.9,12.3v0.2c0,4.4-0.6,8.5-1.9,12.4
				c-1.3,3.9-3.1,7.2-5.4,10.1c-2.3,2.9-5.2,5.1-8.5,6.8C63.8,138.4,60.1,139.2,56.1,139.2z M56.2,129.5c2.4,0,4.5-0.6,6.5-1.7
				c1.9-1.1,3.5-2.7,4.9-4.7c1.3-2,2.4-4.3,3.1-6.9c0.7-2.7,1.1-5.5,1.1-8.6v-0.2c0-3-0.4-5.9-1.1-8.6c-0.8-2.7-1.8-5-3.2-7
				c-1.3-2-3-3.6-5-4.7c-2-1.2-4.1-1.8-6.5-1.8c-2.4,0-4.6,0.6-6.5,1.7c-1.9,1.1-3.5,2.7-4.9,4.7c-1.3,2-2.4,4.3-3.1,6.9
				c-0.7,2.7-1.1,5.5-1.1,8.6v0.2c0,3,0.4,5.9,1.1,8.6c0.7,2.7,1.8,5,3.2,7c1.4,2,3,3.6,5,4.7C51.7,128.9,53.8,129.5,56.2,129.5z"/>
		</g>
		<linearGradient id="SVGID_3_" gradientUnits="userSpaceOnUse" x1="17.2879" y1="155.1041" x2="17.2879" y2="72.8688">
			<stop  offset="0" style="stop-color:#00A5D1"/>
			<stop  offset="1" style="stop-color:#00A5D1"/>
		</linearGradient>
		<path fill="url(#SVGID_3_)" d="M16.5,151.4L13,146h1.8l2.5,3.9l2.5-3.9h1.8l-3.5,5.4v3.5h-1.6V151.4z"/>
		<linearGradient id="SVGID_4_" gradientUnits="userSpaceOnUse" x1="32.1587" y1="155.1041" x2="32.1587" y2="72.8688">
			<stop  offset="0" style="stop-color:#00A5D1"/>
			<stop  offset="1" style="stop-color:#00A5D1"/>
		</linearGradient>
		<path fill="url(#SVGID_4_)" d="M28.8,146h6.6v1.4h-5v2.3h4.5v1.4h-4.5v2.4h5.1v1.4h-6.7V146z"/>
		<linearGradient id="SVGID_5_" gradientUnits="userSpaceOnUse" x1="46.8006" y1="155.1041" x2="46.8006" y2="72.8688">
			<stop  offset="0" style="stop-color:#00A5D1"/>
			<stop  offset="1" style="stop-color:#00A5D1"/>
		</linearGradient>
		<path fill="url(#SVGID_5_)" d="M46.1,145.9h1.5l3.9,9h-1.7l-0.9-2.2h-4.2l-0.9,2.2h-1.6L46.1,145.9z M48.3,151.4l-1.5-3.6
			l-1.5,3.6H48.3z"/>
		<linearGradient id="SVGID_6_" gradientUnits="userSpaceOnUse" x1="61.5599" y1="155.1041" x2="61.5599" y2="72.8688">
			<stop  offset="0" style="stop-color:#00A5D1"/>
			<stop  offset="1" style="stop-color:#00A5D1"/>
		</linearGradient>
		<path fill="url(#SVGID_6_)" d="M57.8,145.9h4c0.6,0,1.1,0.1,1.5,0.2c0.4,0.2,0.8,0.4,1.1,0.7c0.2,0.2,0.4,0.5,0.5,0.9
			c0.1,0.3,0.2,0.7,0.2,1.1v0c0,0.4-0.1,0.7-0.2,1c-0.1,0.3-0.3,0.6-0.4,0.8c-0.2,0.2-0.4,0.4-0.7,0.6c-0.3,0.2-0.5,0.3-0.9,0.4
			l2.4,3.4h-1.8l-2.2-3.1h0h-1.9v3.1h-1.6V145.9z M61.6,150.3c0.6,0,1-0.1,1.3-0.4c0.3-0.3,0.5-0.6,0.5-1.1v0c0-0.5-0.2-0.9-0.5-1.1
			c-0.3-0.3-0.8-0.4-1.4-0.4h-2.3v3H61.6z"/>
		<linearGradient id="SVGID_7_" gradientUnits="userSpaceOnUse" x1="74.5644" y1="155.1041" x2="74.5644" y2="72.8688">
			<stop  offset="0" style="stop-color:#00A5D1"/>
			<stop  offset="1" style="stop-color:#00A5D1"/>
		</linearGradient>
		<path fill="url(#SVGID_7_)" d="M74.8,155c-0.7,0-1.3-0.1-2-0.4c-0.6-0.2-1.2-0.6-1.7-1.1l0.9-1.1c0.4,0.4,0.9,0.7,1.3,0.9
			c0.4,0.2,0.9,0.3,1.5,0.3c0.5,0,0.9-0.1,1.2-0.3c0.3-0.2,0.4-0.5,0.4-0.8v0c0-0.2,0-0.3-0.1-0.4c-0.1-0.1-0.2-0.2-0.3-0.4
			c-0.1-0.1-0.4-0.2-0.6-0.3c-0.3-0.1-0.6-0.2-1-0.3c-0.5-0.1-0.9-0.2-1.3-0.4c-0.4-0.1-0.7-0.3-0.9-0.5c-0.3-0.2-0.4-0.4-0.6-0.7
			c-0.1-0.3-0.2-0.6-0.2-1v0c0-0.4,0.1-0.7,0.2-1.1c0.2-0.3,0.4-0.6,0.6-0.8c0.3-0.2,0.6-0.4,1-0.5c0.4-0.1,0.8-0.2,1.2-0.2
			c0.7,0,1.2,0.1,1.8,0.3c0.5,0.2,1,0.5,1.5,0.8l-0.8,1.2c-0.4-0.3-0.8-0.5-1.2-0.7c-0.4-0.2-0.8-0.2-1.2-0.2
			c-0.5,0-0.8,0.1-1.1,0.3c-0.3,0.2-0.4,0.5-0.4,0.8v0c0,0.2,0,0.3,0.1,0.5c0.1,0.1,0.2,0.3,0.3,0.4c0.2,0.1,0.4,0.2,0.7,0.3
			c0.3,0.1,0.6,0.2,1.1,0.3c0.5,0.1,0.9,0.3,1.2,0.4c0.4,0.1,0.7,0.3,0.9,0.5c0.2,0.2,0.4,0.5,0.5,0.7s0.2,0.6,0.2,1v0
			c0,0.4-0.1,0.8-0.2,1.1c-0.2,0.3-0.4,0.6-0.6,0.8c-0.3,0.2-0.6,0.4-1,0.5C75.7,155,75.3,155,74.8,155z"/>
		<g>
			<g>
				<g>
					<g>
						<g>
							<path d="M2.7,40c1.4,0.3,2,0.8,2,1.8c0,1.1-0.9,1.8-2.1,1.8c-1,0-1.8-0.3-2.5-1l0.4-0.5c0.6,0.6,1.3,0.9,2.1,0.9
								c0.8,0,1.4-0.4,1.4-1.1c0-0.6-0.3-0.9-1.6-1.2c-1.4-0.3-2.1-0.8-2.1-1.8c0-1,0.9-1.7,2-1.7c0.9,0,1.6,0.3,2.2,0.8l-0.4,0.5
								c-0.6-0.5-1.2-0.7-1.8-0.7c-0.8,0-1.3,0.4-1.3,1C1,39.4,1.3,39.7,2.7,40z"/>
							<path d="M7.3,37.3l0,6.2H6.6l0-6.2H7.3z"/>
							<path d="M14.1,37.3h0.7l0,6.2h-0.6l-4-5.1l0,5.1H9.5l0-6.2h0.7l3.9,5L14.1,37.3z"/>
							<path d="M19.7,43.6c-2,0-3.2-1.4-3.2-3.2c0-1.7,1.3-3.2,3.1-3.2c1,0,1.7,0.3,2.3,0.8l-0.5,0.5c-0.5-0.4-1-0.7-1.9-0.7
								c-1.4,0-2.4,1.2-2.4,2.6c0,1.5,1,2.6,2.5,2.6c0.7,0,1.4-0.3,1.8-0.6v-1.5h-1.9v-0.6l2.6,0v2.5C21.6,43.2,20.7,43.6,19.7,43.6
								z"/>
							<path d="M29.8,43.5h-0.8l-0.7-1.6H25l-0.7,1.6h-0.7l2.8-6.3H27L29.8,43.5z M26.6,38l-1.4,3.2h2.8L26.6,38z"/>
							<path d="M33.5,41.3H32v2.2h-0.7l0-6.2h2.3c1.4,0,2.3,0.7,2.3,2C36,40.6,34.8,41.3,33.5,41.3z M33.6,37.9H32l0,2.7h1.5
								c1,0,1.7-0.6,1.7-1.4C35.2,38.4,34.6,37.9,33.6,37.9z"/>
							<path d="M40.5,43.6c-1.9,0-3.2-1.5-3.2-3.2c0-1.7,1.3-3.2,3.2-3.2c1.9,0,3.2,1.5,3.2,3.2C43.6,42.1,42.4,43.6,40.5,43.6z
								 M40.5,37.8c-1.4,0-2.4,1.1-2.4,2.6c0,1.4,1,2.6,2.4,2.6c1.4,0,2.4-1.1,2.4-2.6C42.9,39,41.9,37.8,40.5,37.8z"/>
							<path d="M49.7,43.5l-1.8-2.4h-1.8v2.4h-0.7l0-6.2h2.7c1.4,0,2.2,0.7,2.2,1.9c0,1-0.7,1.6-1.7,1.8l1.9,2.5H49.7z M48,37.9
								h-1.9v2.5H48c0.9,0,1.6-0.5,1.6-1.3C49.6,38.4,49,37.9,48,37.9z"/>
							<path d="M56.7,37.9h-3.8l0,2.1l3.4,0v0.6h-3.4v2.2h3.8v0.6h-4.5v-6.2l4.5,0V37.9z"/>
							<path d="M67.5,40.8c0,1.8-1,2.7-2.6,2.7c-1.5,0-2.6-0.9-2.6-2.7v-3.6H63v3.6c0,1.3,0.7,2.1,1.9,2.1c1.1,0,1.9-0.7,1.9-2v-3.6
								h0.7V40.8z"/>
							<path d="M74.1,37.3h0.7v6.2h-0.6l-4-5.1v5.1h-0.7v-6.2h0.7l3.9,5V37.3z"/>
							<path d="M77.7,37.3v6.2H77l0-6.2H77.7z"/>
							<path d="M84.5,37.3h0.8l-2.7,6.3h-0.6l-2.7-6.3h0.8l2.2,5.4L84.5,37.3z"/>
							<path d="M91.2,37.9h-3.8V40l3.4,0v0.6h-3.4v2.2h3.8v0.6h-4.5v-6.2l4.5,0V37.9z"/>
							<path d="M97.3,43.5l-1.8-2.4h-1.8v2.4h-0.7l0-6.2h2.7c1.4,0,2.2,0.7,2.2,1.9c0,1-0.7,1.6-1.7,1.8l1.9,2.5H97.3z M95.7,37.9
								h-1.9v2.5h1.9c0.9,0,1.6-0.5,1.6-1.3C97.3,38.4,96.7,37.9,95.7,37.9z"/>
							<path d="M102.1,40c1.4,0.3,2,0.8,2,1.8c0,1.1-0.9,1.8-2.1,1.8c-1,0-1.8-0.3-2.5-1l0.4-0.5c0.7,0.6,1.3,0.9,2.1,0.9
								c0.8,0,1.4-0.4,1.4-1.1c0-0.6-0.3-0.9-1.6-1.2c-1.4-0.3-2.1-0.8-2.1-1.8c0-1,0.9-1.7,2-1.7c0.9,0,1.6,0.3,2.2,0.8l-0.4,0.5
								c-0.6-0.5-1.2-0.7-1.8-0.7c-0.8,0-1.3,0.4-1.3,1C100.4,39.4,100.7,39.7,102.1,40z"/>
							<path d="M106.7,37.3v6.2H106v-6.2H106.7z"/>
							<path d="M111.2,43.5h-0.7v-5.6h-2.1v-0.6h4.9v0.6h-2.1V43.5z"/>
							<path d="M117.4,43.5h-0.7V41l-2.6-3.8h0.8l2.1,3.1l2.1-3.1h0.8l-2.6,3.7V43.5z"/>
							<path d="M126.5,43.6c-1.9,0-3.2-1.5-3.2-3.2c0-1.7,1.3-3.2,3.2-3.2c1.9,0,3.2,1.5,3.2,3.2C129.7,42.1,128.4,43.6,126.5,43.6z
								 M126.5,37.8c-1.4,0-2.4,1.1-2.4,2.6c0,1.4,1,2.6,2.4,2.6c1.4,0,2.4-1.1,2.4-2.6C129,39,127.9,37.8,126.5,37.8z"/>
							<path d="M135.9,37.9h-3.8v2.2l3.4,0v0.6h-3.4v2.7h-0.7l0-6.2h4.5V37.9z"/>
						</g>
					</g>
				</g>
				<g>
					<g>
						<g>
							<path d="M2.8,52.8H2.1l0-5.6H0l0-0.6h4.9v0.6H2.8L2.8,52.8z"/>
							<path d="M11.2,47.2l-3.8,0l0,2.1h3.4l0,0.6H7.4l0,2.2h3.8v0.6l-4.5,0l0-6.2h4.5V47.2z"/>
							<path d="M16,52.9c-1.8,0-3.1-1.4-3.1-3.2c0-1.8,1.3-3.2,3.1-3.2c1.1,0,1.8,0.4,2.4,1L18,48c-0.5-0.5-1.1-0.9-2-0.9
								c-1.4,0-2.4,1.1-2.4,2.6c0,1.4,1,2.6,2.4,2.6c0.9,0,1.4-0.3,2-0.9l0.5,0.5C17.9,52.5,17.1,52.9,16,52.9z"/>
							<path d="M21.1,50v2.8h-0.7l0-6.2h0.7l0,2.8h3.6l0-2.8h0.7l0,6.2h-0.7V50H21.1z"/>
							<path d="M32.5,46.6h0.7v6.2h-0.6l-4-5.1l0,5.1h-0.7l0-6.2h0.7l3.9,5V46.6z"/>
							<path d="M38.3,52.9c-1.9,0-3.2-1.5-3.2-3.2c0-1.7,1.3-3.2,3.2-3.2c1.9,0,3.2,1.5,3.2,3.2C41.5,51.4,40.2,52.9,38.3,52.9z
								 M38.3,47.1c-1.4,0-2.4,1.1-2.4,2.6c0,1.4,1,2.6,2.5,2.6c1.4,0,2.4-1.1,2.4-2.6C40.7,48.3,39.7,47.1,38.3,47.1z"/>
							<path d="M43.4,46.6h0.7l0,5.6h3.5v0.7l-4.2,0V46.6z"/>
							<path d="M51.7,52.9c-1.9,0-3.2-1.5-3.2-3.2c0-1.7,1.3-3.2,3.2-3.2c1.9,0,3.2,1.5,3.2,3.2C54.8,51.4,53.6,52.9,51.7,52.9z
								 M51.7,47.1c-1.4,0-2.4,1.1-2.4,2.6c0,1.4,1,2.6,2.4,2.6c1.4,0,2.4-1.1,2.4-2.6C54.1,48.3,53.1,47.1,51.7,47.1z"/>
							<path d="M59.7,52.9c-2,0-3.2-1.4-3.2-3.2c0-1.7,1.3-3.2,3.1-3.2c1,0,1.7,0.3,2.3,0.8l-0.5,0.5c-0.5-0.4-1-0.7-1.9-0.7
								c-1.4,0-2.4,1.2-2.4,2.6c0,1.5,0.9,2.6,2.5,2.6c0.7,0,1.4-0.3,1.8-0.6v-1.5h-1.9v-0.6h2.6l0,2.5
								C61.6,52.5,60.7,52.9,59.7,52.9z"/>
							<path d="M66.6,52.8h-0.7v-2.5l-2.6-3.7h0.9l2.1,3.1l2.1-3.1h0.8l-2.6,3.7V52.8z"/>
							<path d="M79.3,52.8h-0.8l-0.7-1.6h-3.4l-0.7,1.6H73l2.8-6.3l0.7,0L79.3,52.8z M76.1,47.4l-1.4,3.2h2.8L76.1,47.4z"/>
							<path d="M85.6,46.6h0.7v6.2h-0.6l-4-5.1v5.1H81v-6.2h0.7l3.9,5V46.6z"/>
							<path d="M90.9,52.8h-2.2v-6.2h2.2c2,0,3.3,1.3,3.3,3.1C94.2,51.4,92.9,52.8,90.9,52.8z M90.9,47.2h-1.5v4.9h1.5
								c1.6,0,2.6-1.1,2.6-2.4C93.5,48.3,92.5,47.2,90.9,47.2z"/>
							<path d="M101.6,52.8h-2.2v-6.2l2.2,0c1.9,0,3.3,1.3,3.3,3.1C104.9,51.4,103.6,52.8,101.6,52.8z M101.6,47.2h-1.5v4.9h1.5
								c1.6,0,2.6-1.1,2.6-2.4C104.2,48.3,103.2,47.2,101.6,47.2z"/>
							<path d="M111.5,47.2h-3.8v2.1h3.4V50h-3.4v2.2h3.8v0.6H107v-6.2h4.5V47.2z"/>
							<path d="M115.7,49.4c1.4,0.3,2,0.8,2,1.8c0,1.1-0.9,1.8-2.1,1.8c-1,0-1.8-0.3-2.5-1l0.4-0.5c0.6,0.6,1.3,0.9,2.1,0.9
								c0.8,0,1.4-0.4,1.4-1.1c0-0.6-0.3-0.9-1.6-1.2c-1.4-0.3-2.1-0.8-2.1-1.8c0-1,0.9-1.7,2-1.7c0.9,0,1.6,0.3,2.2,0.8l-0.4,0.5
								c-0.6-0.5-1.2-0.7-1.8-0.7c-0.8,0-1.3,0.4-1.3,1C114,48.7,114.4,49.1,115.7,49.4z"/>
							<path d="M120.7,46.6v6.2H120v-6.2H120.7z"/>
							<path d="M125.8,52.9c-2,0-3.2-1.4-3.2-3.2c0-1.7,1.3-3.2,3.1-3.2c1,0,1.7,0.3,2.3,0.8l-0.5,0.5c-0.5-0.4-1-0.7-1.9-0.7
								c-1.4,0-2.4,1.2-2.4,2.6c0,1.5,0.9,2.6,2.5,2.6c0.7,0,1.4-0.3,1.8-0.6v-1.5h-1.9v-0.6h2.6V52
								C127.7,52.5,126.8,52.9,125.8,52.9z"/>
							<path d="M135.2,46.6h0.7v6.2h-0.6l-4-5.1v5.1h-0.7v-6.2h0.7l3.9,5V46.6z"/>
						</g>
					</g>
				</g>
				<g>
					<g>
						<polygon points="24.1,24.1 0,24.1 0,21 24.1,21 24.1,24.1 						"/>
						<polygon points="31.1,10.1 7,10.1 7,7 31.1,7 31.1,10.1 						"/>
						<polygon points="31.1,31.1 0,31.1 0,28 28,28 28,17.1 0,17.1 0,0 31.1,0 31.1,3.1 3.1,3.1 3.1,14 31.1,14 31.1,31.1 						"/>
					</g>
					<g>
						<polygon points="52,17.1 48.9,17.1 48.9,0 52,0 52,17.1 						"/>
						<polygon points="66,31.1 35,31.1 35,0 38.1,0 38.1,28 62.9,28 62.9,0 66,0 66,31.1 						"/>
						<polygon points="59,24.1 41.9,24.1 41.9,0 45.1,0 45.1,21 55.9,21 55.9,0 59,0 59,24.1 						"/>
					</g>
					<g>
						<polygon points="121.9,17.1 104.8,17.1 104.8,14 121.9,14 121.9,17.1 						"/>
						<polygon points="135.9,31.1 104.8,31.1 104.8,28 132.8,28 132.8,3.1 104.8,3.1 104.8,0 135.9,0 135.9,31.1 						"/>
						<polygon points="128.9,24.1 104.8,24.1 104.8,21 125.8,21 125.8,10.1 104.8,10.1 104.8,7 128.9,7 128.9,24.1 						"/>
					</g>
					<g>
						<polygon points="69.9,0 69.9,3.1 83.9,3.1 83.9,31.1 87,31.1 87,3.1 101,3.1 101,0 						"/>
						<polygon points="90.9,31.1 94,31.1 94,10.1 101,10.1 101,7 90.9,7 						"/>
						<rect x="97.8" y="14" width="3.1" height="17.1"/>
						<rect x="69.9" y="14" width="3.1" height="17.1"/>
						<polygon points="69.9,10.1 76.9,10.1 76.9,31.1 80,31.1 80,7 69.9,7 						"/>
					</g>
				</g>
			</g>
		</g>
	</g>
	<g>
		<g>
			<linearGradient id="SVGID_8_" gradientUnits="userSpaceOnUse" x1="114.8162" y1="96.7848" x2="137.7211" y2="73.8799">
				<stop  offset="0" style="stop-color:#004765"/>
				<stop  offset="9.023578e-02" style="stop-color:#005B7D"/>
				<stop  offset="0.2037" style="stop-color:#007096"/>
				<stop  offset="0.3248" style="stop-color:#0083AB"/>
				<stop  offset="0.4542" style="stop-color:#0092BC"/>
				<stop  offset="0.5955" style="stop-color:#009DC8"/>
				<stop  offset="0.7581" style="stop-color:#00A3CF"/>
				<stop  offset="0.9895" style="stop-color:#00A5D1"/>
			</linearGradient>
			<polygon fill="url(#SVGID_8_)" points="124.1,99.4 112.2,87.5 124.1,75.7 135.9,87.5 			"/>
			
				<linearGradient id="SVGID_9_" gradientUnits="userSpaceOnUse" x1="1133.4985" y1="-503.0092" x2="1156.2671" y2="-525.7778" gradientTransform="matrix(-1.846357e-06 1 -1 7.445057e-07 -388.1905 -1031.4807)">
				<stop  offset="0" style="stop-color:#004765"/>
				<stop  offset="9.023578e-02" style="stop-color:#005B7D"/>
				<stop  offset="0.2037" style="stop-color:#007096"/>
				<stop  offset="0.3248" style="stop-color:#0083AB"/>
				<stop  offset="0.4542" style="stop-color:#0092BC"/>
				<stop  offset="0.5955" style="stop-color:#009DC8"/>
				<stop  offset="0.7581" style="stop-color:#00A3CF"/>
				<stop  offset="0.9895" style="stop-color:#00A5D1"/>
			</linearGradient>
			<polygon fill="url(#SVGID_9_)" points="112.2,111.3 124.1,99.4 135.9,111.3 124.1,123.1 			"/>
		</g>
		<linearGradient id="SVGID_10_" gradientUnits="userSpaceOnUse" x1="16.3613" y1="99.4211" x2="262.8021" y2="99.4211">
			<stop  offset="0" style="stop-color:#00A5D1"/>
			<stop  offset="1" style="stop-color:#00A5D1"/>
		</linearGradient>
		<polygon fill="url(#SVGID_10_)" points="88.5,87.5 100.3,75.7 124.1,99.4 100.3,123.2 88.5,111.3 100.3,99.5 		"/>
	</g>
</g>
</svg>
